<svg xmlns="http://www.w3.org/2000/svg" xmlns:xlink="http://www.w3.org/1999/xlink" width="487" zoomAndPan="magnify" viewBox="0 0 365.25 115.499997" height="154" preserveAspectRatio="xMidYMid meet" version="1.0"><defs><g/><clipPath id="8005871843"><path d="M 233.539062 92 L 363.476562 92 L 363.476562 96 L 233.539062 96 Z M 233.539062 92 " clip-rule="nonzero"/></clipPath><clipPath id="9864b6c554"><path d="M 279 103 L 318 103 L 318 106.988281 L 279 106.988281 Z M 279 103 " clip-rule="nonzero"/></clipPath><clipPath id="74792d197d"><path d="M 233.539062 92 L 363.476562 92 L 363.476562 96 L 233.539062 96 Z M 233.539062 92 " clip-rule="nonzero"/></clipPath><clipPath id="65ffb5388b"><path d="M 279 103 L 318 103 L 318 106.988281 L 279 106.988281 Z M 279 103 " clip-rule="nonzero"/></clipPath></defs><path fill="#0e1550" d="M 274.214844 59.96875 L 274.214844 82.757812 L 275.179688 82.757812 L 275.179688 72.996094 L 277.722656 70.289062 L 280.488281 71.078125 L 280.488281 81.945312 L 281.328125 82.183594 L 281.328125 68.765625 L 283.035156 67.714844 L 283.035156 62 L 286.109375 58.726562 L 288.945312 61.746094 L 288.945312 83.933594 L 289.9375 84.214844 L 289.9375 72.945312 L 290.824219 73.488281 L 290.824219 66.339844 L 292.300781 66.761719 L 292.300781 62.28125 L 294.09375 62.792969 L 296.808594 59.90625 L 296.808594 79.835938 L 297.433594 79.835938 L 297.433594 69.332031 L 300.800781 65.746094 L 300.800781 84.5 L 301.339844 90.75 L 301.339844 62.636719 L 307.808594 69.523438 L 307.808594 76.757812 L 308.886719 76.757812 L 308.886719 65.90625 L 311.265625 64.445312 L 311.265625 59.9375 L 313.113281 57.96875 L 318.300781 63.492188 L 318.300781 82.214844 L 319.515625 82.214844 L 319.515625 76.210938 L 321.734375 73.851562 L 325.695312 74.980469 L 325.695312 63.960938 L 327.425781 62.898438 L 332.726562 66.160156 L 332.726562 81.203125 L 333.828125 81.203125 L 333.828125 65.339844 L 335.800781 64.128906 L 335.800781 57.871094 L 336.785156 58.921875 L 336.785156 66.144531 L 338.152344 66.984375 L 338.152344 80.820312 L 339.285156 80.820312 L 339.285156 67.746094 L 342.265625 65.144531 L 342.265625 84.3125 L 343.039062 84.3125 L 343.039062 73.519531 L 347.867188 76.378906 L 347.867188 92.527344 L 249.066406 92.527344 L 249.066406 74.378906 L 252.144531 72.488281 L 256.066406 76.664062 L 256.066406 60.832031 L 258.1875 58.570312 L 261.597656 60.667969 L 261.597656 81.019531 L 262.351562 81.234375 L 262.351562 77.296875 L 263.421875 77.296875 L 263.421875 70.058594 L 265.089844 68.285156 L 265.089844 61.742188 L 269.484375 57.0625 Z M 274.214844 59.96875 " fill-opacity="1" fill-rule="evenodd"/><path fill="#09d1e3" d="M 312.554688 60.4375 C 304.804688 68.183594 292.128906 68.183594 284.382812 60.4375 C 276.636719 52.691406 276.636719 40.015625 284.382812 32.265625 C 292.128906 24.519531 304.804688 24.519531 312.554688 32.265625 C 320.300781 40.015625 320.300781 52.691406 312.554688 60.4375 M 320.023438 67.90625 L 298.46875 89.464844 L 276.910156 67.90625 C 265.054688 56.050781 265.054688 36.652344 276.910156 24.796875 C 288.769531 12.941406 308.167969 12.941406 320.023438 24.796875 C 331.878906 36.652344 331.878906 56.050781 320.023438 67.90625 Z M 320.023438 67.90625 " fill-opacity="1" fill-rule="evenodd"/><g clip-path="url(#8005871843)"><path fill="#09d1e3" d="M 249.066406 92.527344 L 347.867188 92.527344 C 356.410156 92.527344 363.394531 93.28125 363.394531 94.203125 C 363.394531 95.125 356.410156 95.882812 347.867188 95.882812 L 249.066406 95.882812 C 240.523438 95.882812 233.539062 95.125 233.539062 94.203125 C 233.539062 93.28125 240.523438 92.527344 249.066406 92.527344 " fill-opacity="1" fill-rule="evenodd"/></g><path fill="#09d1e3" d="M 276.585938 98.015625 L 320.347656 98.015625 C 328.890625 98.015625 335.875 98.769531 335.875 99.695312 C 335.875 100.617188 328.890625 101.371094 320.347656 101.371094 L 276.585938 101.371094 C 268.042969 101.371094 261.058594 100.617188 261.058594 99.695312 C 261.058594 98.769531 268.042969 98.015625 276.585938 98.015625 " fill-opacity="1" fill-rule="evenodd"/><g clip-path="url(#9864b6c554)"><path fill="#09d1e3" d="M 294.9375 103.507812 L 301.996094 103.507812 C 310.539062 103.507812 317.523438 104.261719 317.523438 105.183594 C 317.523438 106.109375 310.539062 106.863281 301.996094 106.863281 L 294.9375 106.863281 C 286.394531 106.863281 279.410156 106.109375 279.410156 105.183594 C 279.410156 104.261719 286.394531 103.507812 294.9375 103.507812 " fill-opacity="1" fill-rule="evenodd"/></g><g fill="#0e1550" fill-opacity="1"><g transform="translate(17.506182, 83.323184)"><g><path d="M 32.15625 1.4375 C 27.800781 1.4375 23.835938 0.78125 20.265625 -0.53125 C 16.703125 -1.851562 13.644531 -3.742188 11.09375 -6.203125 C 8.550781 -8.671875 6.585938 -11.640625 5.203125 -15.109375 C 3.828125 -18.585938 3.140625 -22.476562 3.140625 -26.78125 C 3.140625 -31.082031 3.828125 -34.96875 5.203125 -38.4375 C 6.585938 -41.914062 8.550781 -44.890625 11.09375 -47.359375 C 13.644531 -49.828125 16.703125 -51.71875 20.265625 -53.03125 C 23.835938 -54.34375 27.800781 -55 32.15625 -55 C 37.21875 -55 41.753906 -54.101562 45.765625 -52.3125 C 49.773438 -50.519531 53.0625 -48.03125 55.625 -44.84375 C 56.226562 -44.144531 56.113281 -43.507812 55.28125 -42.9375 L 45.859375 -36.65625 C 45.140625 -36.144531 44.5 -36.257812 43.9375 -37 C 42.613281 -38.601562 40.953125 -39.859375 38.953125 -40.765625 C 36.953125 -41.671875 34.6875 -42.125 32.15625 -42.125 C 29.195312 -42.125 26.613281 -41.5 24.40625 -40.25 C 22.195312 -39.007812 20.484375 -37.242188 19.265625 -34.953125 C 18.046875 -32.671875 17.4375 -29.945312 17.4375 -26.78125 C 17.4375 -23.476562 18.046875 -20.625 19.265625 -18.21875 C 20.484375 -15.8125 22.195312 -13.957031 24.40625 -12.65625 C 26.613281 -11.351562 29.195312 -10.703125 32.15625 -10.703125 C 34.550781 -10.703125 36.707031 -11.125 38.625 -11.96875 C 40.539062 -12.820312 42.140625 -13.992188 43.421875 -15.484375 L 43.421875 -18.40625 L 34 -18.40625 C 33.050781 -18.40625 32.578125 -18.882812 32.578125 -19.84375 L 32.578125 -28.421875 C 32.578125 -29.378906 33.050781 -29.859375 34 -29.859375 L 55 -29.859375 C 55.945312 -29.859375 56.421875 -29.378906 56.421875 -28.421875 L 56.421875 -10.78125 C 56.421875 -10.125 56.257812 -9.597656 55.9375 -9.203125 C 53.46875 -5.835938 50.1875 -3.222656 46.09375 -1.359375 C 42.007812 0.503906 37.363281 1.4375 32.15625 1.4375 Z M 32.15625 1.4375 "/></g></g></g><g fill="#0e1550" fill-opacity="1"><g transform="translate(81.507596, 83.323184)"><g><path d="M 28.984375 1.4375 C 26.421875 1.4375 23.945312 1.203125 21.5625 0.734375 C 19.1875 0.265625 16.976562 -0.457031 14.9375 -1.4375 C 12.90625 -2.425781 11.128906 -3.6875 9.609375 -5.21875 C 8.085938 -6.757812 6.898438 -8.59375 6.046875 -10.71875 C 5.203125 -12.851562 4.78125 -15.300781 4.78125 -18.0625 L 4.78125 -52.140625 C 4.78125 -53.085938 5.253906 -53.5625 6.203125 -53.5625 L 18 -53.5625 C 18.945312 -53.5625 19.421875 -53.085938 19.421875 -52.140625 L 19.421875 -21.859375 C 19.421875 -18.191406 20.238281 -15.535156 21.875 -13.890625 C 23.519531 -12.253906 25.890625 -11.4375 28.984375 -11.4375 C 32.140625 -11.4375 34.523438 -12.253906 36.140625 -13.890625 C 37.765625 -15.535156 38.578125 -18.191406 38.578125 -21.859375 L 38.578125 -52.140625 C 38.578125 -53.085938 39.050781 -53.5625 40 -53.5625 L 51.78125 -53.5625 C 52.738281 -53.5625 53.21875 -53.085938 53.21875 -52.140625 L 53.21875 -18.0625 C 53.21875 -14.601562 52.578125 -11.640625 51.296875 -9.171875 C 50.015625 -6.703125 48.257812 -4.679688 46.03125 -3.109375 C 43.800781 -1.546875 41.21875 -0.398438 38.28125 0.328125 C 35.351562 1.066406 32.253906 1.4375 28.984375 1.4375 Z M 28.984375 1.4375 "/></g></g></g><g fill="#0e1550" fill-opacity="1"><g transform="translate(143.068071, 83.323184)"><g><path d="M 18.140625 0 L 6.734375 0 C 5.773438 0 5.296875 -0.476562 5.296875 -1.4375 L 5.296875 -52.140625 C 5.296875 -53.085938 5.773438 -53.5625 6.734375 -53.5625 L 18.140625 -53.5625 C 19.085938 -53.5625 19.5625 -53.085938 19.5625 -52.140625 L 19.5625 -1.4375 C 19.5625 -0.476562 19.085938 0 18.140625 0 Z M 18.140625 0 "/></g></g></g><g fill="#0e1550" fill-opacity="1"><g transform="translate(171.501521, 83.323184)"><g><path d="M 29.5 -53.5625 L 54.046875 -1.703125 C 54.285156 -1.191406 54.304688 -0.78125 54.109375 -0.46875 C 53.910156 -0.15625 53.546875 0 53.015625 0 L 40.421875 0 C 39.628906 0 39.082031 -0.382812 38.78125 -1.15625 L 37.03125 -5.65625 L 18.09375 -5.65625 L 16.359375 -1.15625 C 16.054688 -0.382812 15.507812 0 14.71875 0 L 2.125 0 C 1.613281 0 1.253906 -0.15625 1.046875 -0.46875 C 0.835938 -0.78125 0.847656 -1.191406 1.078125 -1.703125 L 25.625 -53.5625 C 26.164062 -54.65625 26.8125 -55.203125 27.5625 -55.203125 C 28.320312 -55.203125 28.96875 -54.65625 29.5 -53.5625 Z M 27.578125 -29.8125 L 22.28125 -16.359375 L 32.84375 -16.359375 Z M 27.578125 -29.8125 "/></g></g></g><g fill="#0e1550" fill-opacity="1"><g transform="translate(24.627286, 103.066502)"><g><path d="M 5.59375 -5.140625 L 3.640625 -5.140625 L 3.640625 0 L 2 0 L 2 -5.140625 L 0.0625 -5.140625 L 0.0625 -6.46875 L 5.59375 -6.46875 Z M 5.59375 -5.140625 "/></g></g></g><g fill="#0e1550" fill-opacity="1"><g transform="translate(34.707664, 103.066502)"><g><path d="M 5.703125 -5.171875 L 2.296875 -5.171875 L 2.296875 -3.890625 L 5.375 -3.890625 L 5.375 -2.59375 L 2.296875 -2.59375 L 2.296875 -1.296875 L 5.8125 -1.296875 L 5.8125 0 L 0.640625 0 L 0.640625 -6.46875 L 5.703125 -6.46875 Z M 5.703125 -5.171875 "/></g></g></g><g fill="#0e1550" fill-opacity="1"><g transform="translate(45.370144, 103.066502)"><g><path d="M 4.546875 0 L 3.578125 -1.8125 L 2.296875 -1.8125 L 2.296875 0 L 0.640625 0 L 0.640625 -6.46875 L 3.53125 -6.46875 C 4.394531 -6.46875 5.054688 -6.269531 5.515625 -5.875 C 5.984375 -5.488281 6.21875 -4.929688 6.21875 -4.203125 C 6.21875 -3.210938 5.828125 -2.523438 5.046875 -2.140625 L 6.40625 0 Z M 2.296875 -3.109375 L 3.53125 -3.109375 C 3.894531 -3.109375 4.171875 -3.195312 4.359375 -3.375 C 4.554688 -3.550781 4.65625 -3.8125 4.65625 -4.15625 C 4.65625 -4.488281 4.554688 -4.738281 4.359375 -4.90625 C 4.171875 -5.082031 3.894531 -5.171875 3.53125 -5.171875 L 2.296875 -5.171875 Z M 2.296875 -3.109375 "/></g></g></g><g fill="#0e1550" fill-opacity="1"><g transform="translate(56.494603, 103.066502)"><g><path d="M 4.546875 0 L 3.578125 -1.8125 L 2.296875 -1.8125 L 2.296875 0 L 0.640625 0 L 0.640625 -6.46875 L 3.53125 -6.46875 C 4.394531 -6.46875 5.054688 -6.269531 5.515625 -5.875 C 5.984375 -5.488281 6.21875 -4.929688 6.21875 -4.203125 C 6.21875 -3.210938 5.828125 -2.523438 5.046875 -2.140625 L 6.40625 0 Z M 2.296875 -3.109375 L 3.53125 -3.109375 C 3.894531 -3.109375 4.171875 -3.195312 4.359375 -3.375 C 4.554688 -3.550781 4.65625 -3.8125 4.65625 -4.15625 C 4.65625 -4.488281 4.554688 -4.738281 4.359375 -4.90625 C 4.171875 -5.082031 3.894531 -5.171875 3.53125 -5.171875 L 2.296875 -5.171875 Z M 2.296875 -3.109375 "/></g></g></g><g fill="#0e1550" fill-opacity="1"><g transform="translate(67.619066, 103.066502)"><g><path d="M 4.9375 -1.1875 L 2.109375 -1.1875 L 1.640625 0 L -0.046875 0 L 2.75 -6.46875 L 4.4375 -6.46875 L 7.15625 0 L 5.40625 0 Z M 4.453125 -2.4375 L 3.53125 -4.828125 L 2.59375 -2.4375 Z M 4.453125 -2.4375 "/></g></g></g><g fill="#0e1550" fill-opacity="1"><g transform="translate(79.168549, 103.066502)"><g/></g></g><g fill="#0e1550" fill-opacity="1"><g transform="translate(85.747127, 103.066502)"><g><path d="M 6.609375 0 L 5.15625 0 L 2.1875 -3.984375 L 2.1875 0 L 0.640625 0 L 0.640625 -6.46875 L 2.09375 -6.46875 L 5.078125 -2.46875 L 5.078125 -6.46875 L 6.609375 -6.46875 Z M 6.609375 0 "/></g></g></g><g fill="#0e1550" fill-opacity="1"><g transform="translate(97.444444, 103.066502)"><g><path d="M 3.71875 -6.515625 C 4.71875 -6.515625 5.550781 -6.203125 6.21875 -5.578125 C 6.882812 -4.953125 7.21875 -4.171875 7.21875 -3.234375 C 7.21875 -2.296875 6.878906 -1.507812 6.203125 -0.875 C 5.535156 -0.238281 4.703125 0.078125 3.703125 0.078125 C 2.710938 0.078125 1.882812 -0.234375 1.21875 -0.859375 C 0.550781 -1.492188 0.21875 -2.285156 0.21875 -3.234375 C 0.21875 -4.179688 0.550781 -4.960938 1.21875 -5.578125 C 1.882812 -6.203125 2.71875 -6.515625 3.71875 -6.515625 Z M 3.734375 -5.140625 C 3.222656 -5.140625 2.789062 -4.957031 2.4375 -4.59375 C 2.082031 -4.226562 1.90625 -3.773438 1.90625 -3.234375 C 1.90625 -2.691406 2.082031 -2.234375 2.4375 -1.859375 C 2.800781 -1.484375 3.234375 -1.296875 3.734375 -1.296875 C 4.234375 -1.296875 4.65625 -1.484375 5 -1.859375 C 5.34375 -2.234375 5.515625 -2.691406 5.515625 -3.234375 C 5.515625 -3.773438 5.34375 -4.226562 5 -4.59375 C 4.65625 -4.957031 4.234375 -5.140625 3.734375 -5.140625 Z M 3.734375 -5.140625 "/></g></g></g><g fill="#0e1550" fill-opacity="1"><g transform="translate(109.317309, 103.066502)"><g><path d="M 4.203125 0 L 2.5 0 L -0.015625 -6.46875 L 1.75 -6.46875 L 3.390625 -1.703125 L 5.046875 -6.46875 L 6.734375 -6.46875 Z M 4.203125 0 "/></g></g></g><g fill="#0e1550" fill-opacity="1"><g transform="translate(120.487968, 103.066502)"><g><path d="M 4.9375 -1.1875 L 2.109375 -1.1875 L 1.640625 0 L -0.046875 0 L 2.75 -6.46875 L 4.4375 -6.46875 L 7.15625 0 L 5.40625 0 Z M 4.453125 -2.4375 L 3.53125 -4.828125 L 2.59375 -2.4375 Z M 4.453125 -2.4375 "/></g></g></g><g fill="#0e1550" fill-opacity="1"><g transform="translate(132.037445, 103.066502)"><g/></g></g><g fill="#0e1550" fill-opacity="1"><g transform="translate(138.616017, 103.066502)"><g><path d="M 0.640625 -6.46875 L 3.421875 -6.46875 C 4.441406 -6.46875 5.269531 -6.164062 5.90625 -5.5625 C 6.539062 -4.96875 6.859375 -4.191406 6.859375 -3.234375 C 6.859375 -2.273438 6.535156 -1.492188 5.890625 -0.890625 C 5.242188 -0.296875 4.398438 0 3.359375 0 L 0.640625 0 Z M 2.296875 -5.15625 L 2.296875 -1.3125 L 3.46875 -1.3125 C 3.96875 -1.3125 4.378906 -1.488281 4.703125 -1.84375 C 5.023438 -2.195312 5.1875 -2.65625 5.1875 -3.21875 C 5.1875 -3.789062 5.015625 -4.253906 4.671875 -4.609375 C 4.335938 -4.972656 3.910156 -5.15625 3.390625 -5.15625 Z M 2.296875 -5.15625 "/></g></g></g><g fill="#0e1550" fill-opacity="1"><g transform="translate(150.137779, 103.066502)"><g><path d="M 3.71875 -6.515625 C 4.71875 -6.515625 5.550781 -6.203125 6.21875 -5.578125 C 6.882812 -4.953125 7.21875 -4.171875 7.21875 -3.234375 C 7.21875 -2.296875 6.878906 -1.507812 6.203125 -0.875 C 5.535156 -0.238281 4.703125 0.078125 3.703125 0.078125 C 2.710938 0.078125 1.882812 -0.234375 1.21875 -0.859375 C 0.550781 -1.492188 0.21875 -2.285156 0.21875 -3.234375 C 0.21875 -4.179688 0.550781 -4.960938 1.21875 -5.578125 C 1.882812 -6.203125 2.71875 -6.515625 3.71875 -6.515625 Z M 3.734375 -5.140625 C 3.222656 -5.140625 2.789062 -4.957031 2.4375 -4.59375 C 2.082031 -4.226562 1.90625 -3.773438 1.90625 -3.234375 C 1.90625 -2.691406 2.082031 -2.234375 2.4375 -1.859375 C 2.800781 -1.484375 3.234375 -1.296875 3.734375 -1.296875 C 4.234375 -1.296875 4.65625 -1.484375 5 -1.859375 C 5.34375 -2.234375 5.515625 -2.691406 5.515625 -3.234375 C 5.515625 -3.773438 5.34375 -4.226562 5 -4.59375 C 4.65625 -4.957031 4.234375 -5.140625 3.734375 -5.140625 Z M 3.734375 -5.140625 "/></g></g></g><g fill="#0e1550" fill-opacity="1"><g transform="translate(162.010639, 103.066502)"><g/></g></g><g fill="#0e1550" fill-opacity="1"><g transform="translate(168.589211, 103.066502)"><g><path d="M 6.609375 0 L 5.15625 0 L 2.1875 -3.984375 L 2.1875 0 L 0.640625 0 L 0.640625 -6.46875 L 2.09375 -6.46875 L 5.078125 -2.46875 L 5.078125 -6.46875 L 6.609375 -6.46875 Z M 6.609375 0 "/></g></g></g><g fill="#0e1550" fill-opacity="1"><g transform="translate(180.286522, 103.066502)"><g><path d="M 3.71875 -6.515625 C 4.71875 -6.515625 5.550781 -6.203125 6.21875 -5.578125 C 6.882812 -4.953125 7.21875 -4.171875 7.21875 -3.234375 C 7.21875 -2.296875 6.878906 -1.507812 6.203125 -0.875 C 5.535156 -0.238281 4.703125 0.078125 3.703125 0.078125 C 2.710938 0.078125 1.882812 -0.234375 1.21875 -0.859375 C 0.550781 -1.492188 0.21875 -2.285156 0.21875 -3.234375 C 0.21875 -4.179688 0.550781 -4.960938 1.21875 -5.578125 C 1.882812 -6.203125 2.71875 -6.515625 3.71875 -6.515625 Z M 3.734375 -5.140625 C 3.222656 -5.140625 2.789062 -4.957031 2.4375 -4.59375 C 2.082031 -4.226562 1.90625 -3.773438 1.90625 -3.234375 C 1.90625 -2.691406 2.082031 -2.234375 2.4375 -1.859375 C 2.800781 -1.484375 3.234375 -1.296875 3.734375 -1.296875 C 4.234375 -1.296875 4.65625 -1.484375 5 -1.859375 C 5.34375 -2.234375 5.515625 -2.691406 5.515625 -3.234375 C 5.515625 -3.773438 5.34375 -4.226562 5 -4.59375 C 4.65625 -4.957031 4.234375 -5.140625 3.734375 -5.140625 Z M 3.734375 -5.140625 "/></g></g></g><g fill="#0e1550" fill-opacity="1"><g transform="translate(192.159382, 103.066502)"><g><path d="M 4.546875 0 L 3.578125 -1.8125 L 2.296875 -1.8125 L 2.296875 0 L 0.640625 0 L 0.640625 -6.46875 L 3.53125 -6.46875 C 4.394531 -6.46875 5.054688 -6.269531 5.515625 -5.875 C 5.984375 -5.488281 6.21875 -4.929688 6.21875 -4.203125 C 6.21875 -3.210938 5.828125 -2.523438 5.046875 -2.140625 L 6.40625 0 Z M 2.296875 -3.109375 L 3.53125 -3.109375 C 3.894531 -3.109375 4.171875 -3.195312 4.359375 -3.375 C 4.554688 -3.550781 4.65625 -3.8125 4.65625 -4.15625 C 4.65625 -4.488281 4.554688 -4.738281 4.359375 -4.90625 C 4.171875 -5.082031 3.894531 -5.171875 3.53125 -5.171875 L 2.296875 -5.171875 Z M 2.296875 -3.109375 "/></g></g></g><g fill="#0e1550" fill-opacity="1"><g transform="translate(203.283839, 103.066502)"><g><path d="M 5.59375 -5.140625 L 3.640625 -5.140625 L 3.640625 0 L 2 0 L 2 -5.140625 L 0.0625 -5.140625 L 0.0625 -6.46875 L 5.59375 -6.46875 Z M 5.59375 -5.140625 "/></g></g></g><g fill="#0e1550" fill-opacity="1"><g transform="translate(213.364213, 103.066502)"><g><path d="M 5.703125 -5.171875 L 2.296875 -5.171875 L 2.296875 -3.890625 L 5.375 -3.890625 L 5.375 -2.59375 L 2.296875 -2.59375 L 2.296875 -1.296875 L 5.8125 -1.296875 L 5.8125 0 L 0.640625 0 L 0.640625 -6.46875 L 5.703125 -6.46875 Z M 5.703125 -5.171875 "/></g></g></g><path fill="#0e1550" d="M 274.214844 59.96875 L 274.214844 82.757812 L 275.179688 82.757812 L 275.179688 72.996094 L 277.722656 70.289062 L 280.488281 71.078125 L 280.488281 81.945312 L 281.328125 82.183594 L 281.328125 68.765625 L 283.035156 67.714844 L 283.035156 62 L 286.109375 58.726562 L 288.945312 61.746094 L 288.945312 83.933594 L 289.9375 84.214844 L 289.9375 72.945312 L 290.824219 73.488281 L 290.824219 66.339844 L 292.300781 66.761719 L 292.300781 62.28125 L 294.09375 62.792969 L 296.808594 59.90625 L 296.808594 79.835938 L 297.433594 79.835938 L 297.433594 69.332031 L 300.800781 65.746094 L 300.800781 84.5 L 301.339844 90.75 L 301.339844 62.636719 L 307.808594 69.523438 L 307.808594 76.757812 L 308.886719 76.757812 L 308.886719 65.90625 L 311.265625 64.445312 L 311.265625 59.9375 L 313.113281 57.96875 L 318.300781 63.492188 L 318.300781 82.214844 L 319.515625 82.214844 L 319.515625 76.210938 L 321.734375 73.851562 L 325.695312 74.980469 L 325.695312 63.960938 L 327.425781 62.898438 L 332.726562 66.160156 L 332.726562 81.203125 L 333.828125 81.203125 L 333.828125 65.339844 L 335.800781 64.128906 L 335.800781 57.871094 L 336.785156 58.921875 L 336.785156 66.144531 L 338.152344 66.984375 L 338.152344 80.820312 L 339.285156 80.820312 L 339.285156 67.746094 L 342.265625 65.144531 L 342.265625 84.3125 L 343.039062 84.3125 L 343.039062 73.519531 L 347.867188 76.378906 L 347.867188 92.527344 L 249.066406 92.527344 L 249.066406 74.378906 L 252.144531 72.488281 L 256.066406 76.664062 L 256.066406 60.832031 L 258.1875 58.570312 L 261.597656 60.667969 L 261.597656 81.019531 L 262.351562 81.234375 L 262.351562 77.296875 L 263.421875 77.296875 L 263.421875 70.058594 L 265.089844 68.285156 L 265.089844 61.742188 L 269.484375 57.0625 Z M 274.214844 59.96875 " fill-opacity="1" fill-rule="evenodd"/><path fill="#09d1e3" d="M 312.554688 60.4375 C 304.804688 68.183594 292.128906 68.183594 284.382812 60.4375 C 276.636719 52.691406 276.636719 40.015625 284.382812 32.265625 C 292.128906 24.519531 304.804688 24.519531 312.554688 32.265625 C 320.300781 40.015625 320.300781 52.691406 312.554688 60.4375 M 320.023438 67.90625 L 298.46875 89.464844 L 276.910156 67.90625 C 265.054688 56.050781 265.054688 36.652344 276.910156 24.796875 C 288.769531 12.941406 308.167969 12.941406 320.023438 24.796875 C 331.878906 36.652344 331.878906 56.050781 320.023438 67.90625 Z M 320.023438 67.90625 " fill-opacity="1" fill-rule="evenodd"/><g clip-path="url(#74792d197d)"><path fill="#09d1e3" d="M 249.066406 92.527344 L 347.867188 92.527344 C 356.410156 92.527344 363.394531 93.28125 363.394531 94.203125 C 363.394531 95.125 356.410156 95.882812 347.867188 95.882812 L 249.066406 95.882812 C 240.523438 95.882812 233.539062 95.125 233.539062 94.203125 C 233.539062 93.28125 240.523438 92.527344 249.066406 92.527344 " fill-opacity="1" fill-rule="evenodd"/></g><path fill="#09d1e3" d="M 276.585938 98.015625 L 320.347656 98.015625 C 328.890625 98.015625 335.875 98.769531 335.875 99.695312 C 335.875 100.617188 328.890625 101.371094 320.347656 101.371094 L 276.585938 101.371094 C 268.042969 101.371094 261.058594 100.617188 261.058594 99.695312 C 261.058594 98.769531 268.042969 98.015625 276.585938 98.015625 " fill-opacity="1" fill-rule="evenodd"/><g clip-path="url(#65ffb5388b)"><path fill="#09d1e3" d="M 294.9375 103.507812 L 301.996094 103.507812 C 310.539062 103.507812 317.523438 104.261719 317.523438 105.183594 C 317.523438 106.109375 310.539062 106.863281 301.996094 106.863281 L 294.9375 106.863281 C 286.394531 106.863281 279.410156 106.109375 279.410156 105.183594 C 279.410156 104.261719 286.394531 103.507812 294.9375 103.507812 " fill-opacity="1" fill-rule="evenodd"/></g><g fill="#0e1550" fill-opacity="1"><g transform="translate(17.506182, 83.323184)"><g><path d="M 32.15625 1.4375 C 27.800781 1.4375 23.835938 0.78125 20.265625 -0.53125 C 16.703125 -1.851562 13.644531 -3.742188 11.09375 -6.203125 C 8.550781 -8.671875 6.585938 -11.640625 5.203125 -15.109375 C 3.828125 -18.585938 3.140625 -22.476562 3.140625 -26.78125 C 3.140625 -31.082031 3.828125 -34.96875 5.203125 -38.4375 C 6.585938 -41.914062 8.550781 -44.890625 11.09375 -47.359375 C 13.644531 -49.828125 16.703125 -51.71875 20.265625 -53.03125 C 23.835938 -54.34375 27.800781 -55 32.15625 -55 C 37.21875 -55 41.753906 -54.101562 45.765625 -52.3125 C 49.773438 -50.519531 53.0625 -48.03125 55.625 -44.84375 C 56.226562 -44.144531 56.113281 -43.507812 55.28125 -42.9375 L 45.859375 -36.65625 C 45.140625 -36.144531 44.5 -36.257812 43.9375 -37 C 42.613281 -38.601562 40.953125 -39.859375 38.953125 -40.765625 C 36.953125 -41.671875 34.6875 -42.125 32.15625 -42.125 C 29.195312 -42.125 26.613281 -41.5 24.40625 -40.25 C 22.195312 -39.007812 20.484375 -37.242188 19.265625 -34.953125 C 18.046875 -32.671875 17.4375 -29.945312 17.4375 -26.78125 C 17.4375 -23.476562 18.046875 -20.625 19.265625 -18.21875 C 20.484375 -15.8125 22.195312 -13.957031 24.40625 -12.65625 C 26.613281 -11.351562 29.195312 -10.703125 32.15625 -10.703125 C 34.550781 -10.703125 36.707031 -11.125 38.625 -11.96875 C 40.539062 -12.820312 42.140625 -13.992188 43.421875 -15.484375 L 43.421875 -18.40625 L 34 -18.40625 C 33.050781 -18.40625 32.578125 -18.882812 32.578125 -19.84375 L 32.578125 -28.421875 C 32.578125 -29.378906 33.050781 -29.859375 34 -29.859375 L 55 -29.859375 C 55.945312 -29.859375 56.421875 -29.378906 56.421875 -28.421875 L 56.421875 -10.78125 C 56.421875 -10.125 56.257812 -9.597656 55.9375 -9.203125 C 53.46875 -5.835938 50.1875 -3.222656 46.09375 -1.359375 C 42.007812 0.503906 37.363281 1.4375 32.15625 1.4375 Z M 32.15625 1.4375 "/></g></g></g><g fill="#0e1550" fill-opacity="1"><g transform="translate(81.507596, 83.323184)"><g><path d="M 28.984375 1.4375 C 26.421875 1.4375 23.945312 1.203125 21.5625 0.734375 C 19.1875 0.265625 16.976562 -0.457031 14.9375 -1.4375 C 12.90625 -2.425781 11.128906 -3.6875 9.609375 -5.21875 C 8.085938 -6.757812 6.898438 -8.59375 6.046875 -10.71875 C 5.203125 -12.851562 4.78125 -15.300781 4.78125 -18.0625 L 4.78125 -52.140625 C 4.78125 -53.085938 5.253906 -53.5625 6.203125 -53.5625 L 18 -53.5625 C 18.945312 -53.5625 19.421875 -53.085938 19.421875 -52.140625 L 19.421875 -21.859375 C 19.421875 -18.191406 20.238281 -15.535156 21.875 -13.890625 C 23.519531 -12.253906 25.890625 -11.4375 28.984375 -11.4375 C 32.140625 -11.4375 34.523438 -12.253906 36.140625 -13.890625 C 37.765625 -15.535156 38.578125 -18.191406 38.578125 -21.859375 L 38.578125 -52.140625 C 38.578125 -53.085938 39.050781 -53.5625 40 -53.5625 L 51.78125 -53.5625 C 52.738281 -53.5625 53.21875 -53.085938 53.21875 -52.140625 L 53.21875 -18.0625 C 53.21875 -14.601562 52.578125 -11.640625 51.296875 -9.171875 C 50.015625 -6.703125 48.257812 -4.679688 46.03125 -3.109375 C 43.800781 -1.546875 41.21875 -0.398438 38.28125 0.328125 C 35.351562 1.066406 32.253906 1.4375 28.984375 1.4375 Z M 28.984375 1.4375 "/></g></g></g><g fill="#0e1550" fill-opacity="1"><g transform="translate(143.068071, 83.323184)"><g><path d="M 18.140625 0 L 6.734375 0 C 5.773438 0 5.296875 -0.476562 5.296875 -1.4375 L 5.296875 -52.140625 C 5.296875 -53.085938 5.773438 -53.5625 6.734375 -53.5625 L 18.140625 -53.5625 C 19.085938 -53.5625 19.5625 -53.085938 19.5625 -52.140625 L 19.5625 -1.4375 C 19.5625 -0.476562 19.085938 0 18.140625 0 Z M 18.140625 0 "/></g></g></g><g fill="#0e1550" fill-opacity="1"><g transform="translate(171.501521, 83.323184)"><g><path d="M 29.5 -53.5625 L 54.046875 -1.703125 C 54.285156 -1.191406 54.304688 -0.78125 54.109375 -0.46875 C 53.910156 -0.15625 53.546875 0 53.015625 0 L 40.421875 0 C 39.628906 0 39.082031 -0.382812 38.78125 -1.15625 L 37.03125 -5.65625 L 18.09375 -5.65625 L 16.359375 -1.15625 C 16.054688 -0.382812 15.507812 0 14.71875 0 L 2.125 0 C 1.613281 0 1.253906 -0.15625 1.046875 -0.46875 C 0.835938 -0.78125 0.847656 -1.191406 1.078125 -1.703125 L 25.625 -53.5625 C 26.164062 -54.65625 26.8125 -55.203125 27.5625 -55.203125 C 28.320312 -55.203125 28.96875 -54.65625 29.5 -53.5625 Z M 27.578125 -29.8125 L 22.28125 -16.359375 L 32.84375 -16.359375 Z M 27.578125 -29.8125 "/></g></g></g><g fill="#0e1550" fill-opacity="1"><g transform="translate(24.627286, 103.066502)"><g><path d="M 5.59375 -5.140625 L 3.640625 -5.140625 L 3.640625 0 L 2 0 L 2 -5.140625 L 0.0625 -5.140625 L 0.0625 -6.46875 L 5.59375 -6.46875 Z M 5.59375 -5.140625 "/></g></g></g><g fill="#0e1550" fill-opacity="1"><g transform="translate(34.707664, 103.066502)"><g><path d="M 5.703125 -5.171875 L 2.296875 -5.171875 L 2.296875 -3.890625 L 5.375 -3.890625 L 5.375 -2.59375 L 2.296875 -2.59375 L 2.296875 -1.296875 L 5.8125 -1.296875 L 5.8125 0 L 0.640625 0 L 0.640625 -6.46875 L 5.703125 -6.46875 Z M 5.703125 -5.171875 "/></g></g></g><g fill="#0e1550" fill-opacity="1"><g transform="translate(45.370144, 103.066502)"><g><path d="M 4.546875 0 L 3.578125 -1.8125 L 2.296875 -1.8125 L 2.296875 0 L 0.640625 0 L 0.640625 -6.46875 L 3.53125 -6.46875 C 4.394531 -6.46875 5.054688 -6.269531 5.515625 -5.875 C 5.984375 -5.488281 6.21875 -4.929688 6.21875 -4.203125 C 6.21875 -3.210938 5.828125 -2.523438 5.046875 -2.140625 L 6.40625 0 Z M 2.296875 -3.109375 L 3.53125 -3.109375 C 3.894531 -3.109375 4.171875 -3.195312 4.359375 -3.375 C 4.554688 -3.550781 4.65625 -3.8125 4.65625 -4.15625 C 4.65625 -4.488281 4.554688 -4.738281 4.359375 -4.90625 C 4.171875 -5.082031 3.894531 -5.171875 3.53125 -5.171875 L 2.296875 -5.171875 Z M 2.296875 -3.109375 "/></g></g></g><g fill="#0e1550" fill-opacity="1"><g transform="translate(56.494603, 103.066502)"><g><path d="M 4.546875 0 L 3.578125 -1.8125 L 2.296875 -1.8125 L 2.296875 0 L 0.640625 0 L 0.640625 -6.46875 L 3.53125 -6.46875 C 4.394531 -6.46875 5.054688 -6.269531 5.515625 -5.875 C 5.984375 -5.488281 6.21875 -4.929688 6.21875 -4.203125 C 6.21875 -3.210938 5.828125 -2.523438 5.046875 -2.140625 L 6.40625 0 Z M 2.296875 -3.109375 L 3.53125 -3.109375 C 3.894531 -3.109375 4.171875 -3.195312 4.359375 -3.375 C 4.554688 -3.550781 4.65625 -3.8125 4.65625 -4.15625 C 4.65625 -4.488281 4.554688 -4.738281 4.359375 -4.90625 C 4.171875 -5.082031 3.894531 -5.171875 3.53125 -5.171875 L 2.296875 -5.171875 Z M 2.296875 -3.109375 "/></g></g></g><g fill="#0e1550" fill-opacity="1"><g transform="translate(67.619066, 103.066502)"><g><path d="M 4.9375 -1.1875 L 2.109375 -1.1875 L 1.640625 0 L -0.046875 0 L 2.75 -6.46875 L 4.4375 -6.46875 L 7.15625 0 L 5.40625 0 Z M 4.453125 -2.4375 L 3.53125 -4.828125 L 2.59375 -2.4375 Z M 4.453125 -2.4375 "/></g></g></g><g fill="#0e1550" fill-opacity="1"><g transform="translate(79.168549, 103.066502)"><g/></g></g><g fill="#0e1550" fill-opacity="1"><g transform="translate(85.747127, 103.066502)"><g><path d="M 6.609375 0 L 5.15625 0 L 2.1875 -3.984375 L 2.1875 0 L 0.640625 0 L 0.640625 -6.46875 L 2.09375 -6.46875 L 5.078125 -2.46875 L 5.078125 -6.46875 L 6.609375 -6.46875 Z M 6.609375 0 "/></g></g></g><g fill="#0e1550" fill-opacity="1"><g transform="translate(97.444444, 103.066502)"><g><path d="M 3.71875 -6.515625 C 4.71875 -6.515625 5.550781 -6.203125 6.21875 -5.578125 C 6.882812 -4.953125 7.21875 -4.171875 7.21875 -3.234375 C 7.21875 -2.296875 6.878906 -1.507812 6.203125 -0.875 C 5.535156 -0.238281 4.703125 0.078125 3.703125 0.078125 C 2.710938 0.078125 1.882812 -0.234375 1.21875 -0.859375 C 0.550781 -1.492188 0.21875 -2.285156 0.21875 -3.234375 C 0.21875 -4.179688 0.550781 -4.960938 1.21875 -5.578125 C 1.882812 -6.203125 2.71875 -6.515625 3.71875 -6.515625 Z M 3.734375 -5.140625 C 3.222656 -5.140625 2.789062 -4.957031 2.4375 -4.59375 C 2.082031 -4.226562 1.90625 -3.773438 1.90625 -3.234375 C 1.90625 -2.691406 2.082031 -2.234375 2.4375 -1.859375 C 2.800781 -1.484375 3.234375 -1.296875 3.734375 -1.296875 C 4.234375 -1.296875 4.65625 -1.484375 5 -1.859375 C 5.34375 -2.234375 5.515625 -2.691406 5.515625 -3.234375 C 5.515625 -3.773438 5.34375 -4.226562 5 -4.59375 C 4.65625 -4.957031 4.234375 -5.140625 3.734375 -5.140625 Z M 3.734375 -5.140625 "/></g></g></g><g fill="#0e1550" fill-opacity="1"><g transform="translate(109.317309, 103.066502)"><g><path d="M 4.203125 0 L 2.5 0 L -0.015625 -6.46875 L 1.75 -6.46875 L 3.390625 -1.703125 L 5.046875 -6.46875 L 6.734375 -6.46875 Z M 4.203125 0 "/></g></g></g><g fill="#0e1550" fill-opacity="1"><g transform="translate(120.487968, 103.066502)"><g><path d="M 4.9375 -1.1875 L 2.109375 -1.1875 L 1.640625 0 L -0.046875 0 L 2.75 -6.46875 L 4.4375 -6.46875 L 7.15625 0 L 5.40625 0 Z M 4.453125 -2.4375 L 3.53125 -4.828125 L 2.59375 -2.4375 Z M 4.453125 -2.4375 "/></g></g></g><g fill="#0e1550" fill-opacity="1"><g transform="translate(132.037445, 103.066502)"><g/></g></g><g fill="#0e1550" fill-opacity="1"><g transform="translate(138.616017, 103.066502)"><g><path d="M 0.640625 -6.46875 L 3.421875 -6.46875 C 4.441406 -6.46875 5.269531 -6.164062 5.90625 -5.5625 C 6.539062 -4.96875 6.859375 -4.191406 6.859375 -3.234375 C 6.859375 -2.273438 6.535156 -1.492188 5.890625 -0.890625 C 5.242188 -0.296875 4.398438 0 3.359375 0 L 0.640625 0 Z M 2.296875 -5.15625 L 2.296875 -1.3125 L 3.46875 -1.3125 C 3.96875 -1.3125 4.378906 -1.488281 4.703125 -1.84375 C 5.023438 -2.195312 5.1875 -2.65625 5.1875 -3.21875 C 5.1875 -3.789062 5.015625 -4.253906 4.671875 -4.609375 C 4.335938 -4.972656 3.910156 -5.15625 3.390625 -5.15625 Z M 2.296875 -5.15625 "/></g></g></g><g fill="#0e1550" fill-opacity="1"><g transform="translate(150.137779, 103.066502)"><g><path d="M 3.71875 -6.515625 C 4.71875 -6.515625 5.550781 -6.203125 6.21875 -5.578125 C 6.882812 -4.953125 7.21875 -4.171875 7.21875 -3.234375 C 7.21875 -2.296875 6.878906 -1.507812 6.203125 -0.875 C 5.535156 -0.238281 4.703125 0.078125 3.703125 0.078125 C 2.710938 0.078125 1.882812 -0.234375 1.21875 -0.859375 C 0.550781 -1.492188 0.21875 -2.285156 0.21875 -3.234375 C 0.21875 -4.179688 0.550781 -4.960938 1.21875 -5.578125 C 1.882812 -6.203125 2.71875 -6.515625 3.71875 -6.515625 Z M 3.734375 -5.140625 C 3.222656 -5.140625 2.789062 -4.957031 2.4375 -4.59375 C 2.082031 -4.226562 1.90625 -3.773438 1.90625 -3.234375 C 1.90625 -2.691406 2.082031 -2.234375 2.4375 -1.859375 C 2.800781 -1.484375 3.234375 -1.296875 3.734375 -1.296875 C 4.234375 -1.296875 4.65625 -1.484375 5 -1.859375 C 5.34375 -2.234375 5.515625 -2.691406 5.515625 -3.234375 C 5.515625 -3.773438 5.34375 -4.226562 5 -4.59375 C 4.65625 -4.957031 4.234375 -5.140625 3.734375 -5.140625 Z M 3.734375 -5.140625 "/></g></g></g><g fill="#0e1550" fill-opacity="1"><g transform="translate(162.010639, 103.066502)"><g/></g></g><g fill="#0e1550" fill-opacity="1"><g transform="translate(168.589211, 103.066502)"><g><path d="M 6.609375 0 L 5.15625 0 L 2.1875 -3.984375 L 2.1875 0 L 0.640625 0 L 0.640625 -6.46875 L 2.09375 -6.46875 L 5.078125 -2.46875 L 5.078125 -6.46875 L 6.609375 -6.46875 Z M 6.609375 0 "/></g></g></g><g fill="#0e1550" fill-opacity="1"><g transform="translate(180.286522, 103.066502)"><g><path d="M 3.71875 -6.515625 C 4.71875 -6.515625 5.550781 -6.203125 6.21875 -5.578125 C 6.882812 -4.953125 7.21875 -4.171875 7.21875 -3.234375 C 7.21875 -2.296875 6.878906 -1.507812 6.203125 -0.875 C 5.535156 -0.238281 4.703125 0.078125 3.703125 0.078125 C 2.710938 0.078125 1.882812 -0.234375 1.21875 -0.859375 C 0.550781 -1.492188 0.21875 -2.285156 0.21875 -3.234375 C 0.21875 -4.179688 0.550781 -4.960938 1.21875 -5.578125 C 1.882812 -6.203125 2.71875 -6.515625 3.71875 -6.515625 Z M 3.734375 -5.140625 C 3.222656 -5.140625 2.789062 -4.957031 2.4375 -4.59375 C 2.082031 -4.226562 1.90625 -3.773438 1.90625 -3.234375 C 1.90625 -2.691406 2.082031 -2.234375 2.4375 -1.859375 C 2.800781 -1.484375 3.234375 -1.296875 3.734375 -1.296875 C 4.234375 -1.296875 4.65625 -1.484375 5 -1.859375 C 5.34375 -2.234375 5.515625 -2.691406 5.515625 -3.234375 C 5.515625 -3.773438 5.34375 -4.226562 5 -4.59375 C 4.65625 -4.957031 4.234375 -5.140625 3.734375 -5.140625 Z M 3.734375 -5.140625 "/></g></g></g><g fill="#0e1550" fill-opacity="1"><g transform="translate(192.159382, 103.066502)"><g><path d="M 4.546875 0 L 3.578125 -1.8125 L 2.296875 -1.8125 L 2.296875 0 L 0.640625 0 L 0.640625 -6.46875 L 3.53125 -6.46875 C 4.394531 -6.46875 5.054688 -6.269531 5.515625 -5.875 C 5.984375 -5.488281 6.21875 -4.929688 6.21875 -4.203125 C 6.21875 -3.210938 5.828125 -2.523438 5.046875 -2.140625 L 6.40625 0 Z M 2.296875 -3.109375 L 3.53125 -3.109375 C 3.894531 -3.109375 4.171875 -3.195312 4.359375 -3.375 C 4.554688 -3.550781 4.65625 -3.8125 4.65625 -4.15625 C 4.65625 -4.488281 4.554688 -4.738281 4.359375 -4.90625 C 4.171875 -5.082031 3.894531 -5.171875 3.53125 -5.171875 L 2.296875 -5.171875 Z M 2.296875 -3.109375 "/></g></g></g><g fill="#0e1550" fill-opacity="1"><g transform="translate(203.283839, 103.066502)"><g><path d="M 5.59375 -5.140625 L 3.640625 -5.140625 L 3.640625 0 L 2 0 L 2 -5.140625 L 0.0625 -5.140625 L 0.0625 -6.46875 L 5.59375 -6.46875 Z M 5.59375 -5.140625 "/></g></g></g><g fill="#0e1550" fill-opacity="1"><g transform="translate(213.364213, 103.066502)"><g><path d="M 5.703125 -5.171875 L 2.296875 -5.171875 L 2.296875 -3.890625 L 5.375 -3.890625 L 5.375 -2.59375 L 2.296875 -2.59375 L 2.296875 -1.296875 L 5.8125 -1.296875 L 5.8125 0 L 0.640625 0 L 0.640625 -6.46875 L 5.703125 -6.46875 Z M 5.703125 -5.171875 "/></g></g></g></svg>