<svg xmlns="http://www.w3.org/2000/svg" xmlns:xlink="http://www.w3.org/1999/xlink" width="326" zoomAndPan="magnify" viewBox="0 0 244.5 207.000001" height="276" preserveAspectRatio="xMidYMid meet" version="1.0"><defs><g/><clipPath id="1794e4b543"><path d="M 38.984375 101 L 204.871094 101 L 204.871094 107 L 38.984375 107 Z M 38.984375 101 " clip-rule="nonzero"/></clipPath><clipPath id="611d93f8ef"><path d="M 97 115 L 147 115 L 147 119.878906 L 97 119.878906 Z M 97 115 " clip-rule="nonzero"/></clipPath><clipPath id="ae11209c57"><path d="M 38.984375 101 L 204.871094 101 L 204.871094 107 L 38.984375 107 Z M 38.984375 101 " clip-rule="nonzero"/></clipPath><clipPath id="3e800f01f4"><path d="M 97 115 L 147 115 L 147 119.878906 L 97 119.878906 Z M 97 115 " clip-rule="nonzero"/></clipPath></defs><path fill="#0e1550" d="M 90.976562 60.148438 L 90.976562 89.273438 L 92.210938 89.273438 L 92.210938 76.796875 L 95.457031 73.335938 L 98.992188 74.34375 L 98.992188 88.238281 L 100.066406 88.542969 L 100.066406 71.386719 L 102.253906 70.042969 L 102.253906 62.742188 L 106.183594 58.558594 L 109.804688 62.417969 L 109.804688 90.777344 L 111.074219 91.140625 L 111.074219 76.730469 L 112.207031 77.429688 L 112.207031 68.289062 L 114.09375 68.828125 L 114.09375 63.101562 L 116.390625 63.757812 L 119.855469 60.066406 L 119.855469 85.542969 L 120.65625 85.542969 L 120.65625 72.113281 L 124.960938 67.53125 L 124.960938 91.503906 L 125.648438 99.492188 L 125.648438 63.554688 L 133.914062 72.355469 L 133.914062 81.605469 L 135.296875 81.605469 L 135.296875 67.734375 L 138.335938 65.867188 L 138.335938 60.105469 L 140.699219 57.589844 L 147.328125 64.648438 L 147.328125 88.582031 L 148.882812 88.582031 L 148.882812 80.910156 L 151.71875 77.890625 L 156.78125 79.335938 L 156.78125 65.25 L 158.992188 63.890625 L 165.769531 68.058594 L 165.769531 87.285156 L 167.175781 87.285156 L 167.175781 67.011719 L 169.699219 65.460938 L 169.699219 57.464844 L 170.960938 58.808594 L 170.960938 68.039062 L 172.703125 69.113281 L 172.703125 86.800781 L 174.152344 86.800781 L 174.152344 70.085938 L 177.960938 66.757812 L 177.960938 91.261719 L 178.949219 91.261719 L 178.949219 77.46875 L 185.125 81.121094 L 185.125 101.761719 L 58.832031 101.761719 L 58.832031 78.566406 L 62.765625 76.148438 L 67.777344 81.484375 L 67.777344 61.246094 L 70.488281 58.359375 L 74.847656 61.039062 L 74.847656 87.050781 L 75.808594 87.328125 L 75.808594 82.296875 L 77.179688 82.296875 L 77.179688 73.042969 L 79.3125 70.773438 L 79.3125 62.414062 L 84.929688 56.429688 Z M 90.976562 60.148438 " fill-opacity="1" fill-rule="evenodd"/><path fill="#09d1e3" d="M 139.980469 60.746094 C 130.078125 70.648438 113.875 70.648438 103.972656 60.746094 C 94.070312 50.84375 94.070312 34.636719 103.972656 24.734375 C 113.875 14.832031 130.078125 14.832031 139.980469 24.734375 C 149.882812 34.636719 149.882812 50.84375 139.980469 60.746094 M 149.53125 70.292969 L 121.976562 97.847656 L 94.421875 70.292969 C 79.269531 55.140625 79.269531 30.339844 94.421875 15.1875 C 109.578125 0.0351562 134.375 0.0351562 149.53125 15.1875 C 164.683594 30.339844 164.683594 55.136719 149.53125 70.292969 Z M 149.53125 70.292969 " fill-opacity="1" fill-rule="evenodd"/><g clip-path="url(#1794e4b543)"><path fill="#09d1e3" d="M 58.828125 101.761719 L 185.125 101.761719 C 196.042969 101.761719 204.96875 102.726562 204.96875 103.90625 C 204.96875 105.085938 196.042969 106.050781 185.125 106.050781 L 58.828125 106.050781 C 47.910156 106.050781 38.984375 105.085938 38.984375 103.90625 C 38.984375 102.726562 47.910156 101.761719 58.828125 101.761719 " fill-opacity="1" fill-rule="evenodd"/></g><path fill="#09d1e3" d="M 94.007812 108.78125 L 149.945312 108.78125 C 160.867188 108.78125 169.792969 109.746094 169.792969 110.925781 C 169.792969 112.105469 160.867188 113.070312 149.945312 113.070312 L 94.007812 113.070312 C 83.089844 113.070312 74.160156 112.105469 74.160156 110.925781 C 74.160156 109.746094 83.089844 108.78125 94.007812 108.78125 " fill-opacity="1" fill-rule="evenodd"/><g clip-path="url(#611d93f8ef)"><path fill="#09d1e3" d="M 117.464844 115.796875 L 126.488281 115.796875 C 137.410156 115.796875 146.335938 116.761719 146.335938 117.941406 C 146.335938 119.121094 137.410156 120.085938 126.488281 120.085938 L 117.464844 120.085938 C 106.542969 120.085938 97.617188 119.121094 97.617188 117.941406 C 97.617188 116.761719 106.542969 115.796875 117.464844 115.796875 " fill-opacity="1" fill-rule="evenodd"/></g><g fill="#0e1550" fill-opacity="1"><g transform="translate(17.422788, 174.397545)"><g><path d="M 32.125 1.421875 C 27.78125 1.421875 23.828125 0.765625 20.265625 -0.546875 C 16.703125 -1.859375 13.644531 -3.742188 11.09375 -6.203125 C 8.550781 -8.660156 6.585938 -11.625 5.203125 -15.09375 C 3.828125 -18.570312 3.140625 -22.460938 3.140625 -26.765625 C 3.140625 -31.066406 3.828125 -34.953125 5.203125 -38.421875 C 6.585938 -41.898438 8.550781 -44.867188 11.09375 -47.328125 C 13.644531 -49.785156 16.703125 -51.671875 20.265625 -52.984375 C 23.828125 -54.296875 27.78125 -54.953125 32.125 -54.953125 C 37.195312 -54.953125 41.734375 -54.054688 45.734375 -52.265625 C 49.742188 -50.484375 53.03125 -48 55.59375 -44.8125 C 56.195312 -44.113281 56.078125 -43.476562 55.234375 -42.90625 L 45.828125 -36.625 C 45.109375 -36.113281 44.46875 -36.234375 43.90625 -36.984375 C 42.582031 -38.578125 40.921875 -39.828125 38.921875 -40.734375 C 36.929688 -41.640625 34.664062 -42.09375 32.125 -42.09375 C 29.175781 -42.09375 26.597656 -41.472656 24.390625 -40.234375 C 22.179688 -38.992188 20.46875 -37.226562 19.25 -34.9375 C 18.03125 -32.644531 17.421875 -29.921875 17.421875 -26.765625 C 17.421875 -23.460938 18.03125 -20.609375 19.25 -18.203125 C 20.46875 -15.804688 22.179688 -13.957031 24.390625 -12.65625 C 26.597656 -11.351562 29.175781 -10.703125 32.125 -10.703125 C 34.519531 -10.703125 36.675781 -11.125 38.59375 -11.96875 C 40.507812 -12.820312 42.109375 -13.988281 43.390625 -15.46875 L 43.390625 -18.40625 L 33.984375 -18.40625 C 33.023438 -18.40625 32.546875 -18.878906 32.546875 -19.828125 L 32.546875 -28.40625 C 32.546875 -29.351562 33.023438 -29.828125 33.984375 -29.828125 L 54.953125 -29.828125 C 55.910156 -29.828125 56.390625 -29.351562 56.390625 -28.40625 L 56.390625 -10.765625 C 56.390625 -10.117188 56.226562 -9.597656 55.90625 -9.203125 C 53.4375 -5.828125 50.15625 -3.210938 46.0625 -1.359375 C 41.976562 0.492188 37.332031 1.421875 32.125 1.421875 Z M 32.125 1.421875 "/></g></g></g><g fill="#0e1550" fill-opacity="1"><g transform="translate(81.392235, 174.397545)"><g><path d="M 28.96875 1.421875 C 26.40625 1.421875 23.929688 1.1875 21.546875 0.71875 C 19.171875 0.257812 16.96875 -0.457031 14.9375 -1.4375 C 12.90625 -2.425781 11.125 -3.6875 9.59375 -5.21875 C 8.070312 -6.757812 6.890625 -8.59375 6.046875 -10.71875 C 5.203125 -12.84375 4.78125 -15.285156 4.78125 -18.046875 L 4.78125 -52.109375 C 4.78125 -53.054688 5.253906 -53.53125 6.203125 -53.53125 L 17.984375 -53.53125 C 18.929688 -53.53125 19.40625 -53.054688 19.40625 -52.109375 L 19.40625 -21.859375 C 19.40625 -18.179688 20.222656 -15.523438 21.859375 -13.890625 C 23.503906 -12.253906 25.875 -11.4375 28.96875 -11.4375 C 32.125 -11.4375 34.507812 -12.253906 36.125 -13.890625 C 37.738281 -15.523438 38.546875 -18.179688 38.546875 -21.859375 L 38.546875 -52.109375 C 38.546875 -53.054688 39.019531 -53.53125 39.96875 -53.53125 L 51.75 -53.53125 C 52.707031 -53.53125 53.1875 -53.054688 53.1875 -52.109375 L 53.1875 -18.046875 C 53.1875 -14.585938 52.546875 -11.625 51.265625 -9.15625 C 49.984375 -6.695312 48.226562 -4.679688 46 -3.109375 C 43.769531 -1.546875 41.191406 -0.398438 38.265625 0.328125 C 35.335938 1.054688 32.238281 1.421875 28.96875 1.421875 Z M 28.96875 1.421875 "/></g></g></g><g fill="#0e1550" fill-opacity="1"><g transform="translate(142.921963, 174.397545)"><g><path d="M 18.125 0 L 6.71875 0 C 5.769531 0 5.296875 -0.472656 5.296875 -1.421875 L 5.296875 -52.109375 C 5.296875 -53.054688 5.769531 -53.53125 6.71875 -53.53125 L 18.125 -53.53125 C 19.070312 -53.53125 19.546875 -53.054688 19.546875 -52.109375 L 19.546875 -1.421875 C 19.546875 -0.472656 19.070312 0 18.125 0 Z M 18.125 0 "/></g></g></g><g fill="#0e1550" fill-opacity="1"><g transform="translate(171.341212, 174.397545)"><g><path d="M 29.484375 -53.53125 L 54.015625 -1.703125 C 54.253906 -1.191406 54.273438 -0.78125 54.078125 -0.46875 C 53.878906 -0.15625 53.507812 0 52.96875 0 L 40.390625 0 C 39.597656 0 39.050781 -0.382812 38.75 -1.15625 L 37.015625 -5.640625 L 18.09375 -5.640625 L 16.34375 -1.15625 C 16.039062 -0.382812 15.492188 0 14.703125 0 L 2.125 0 C 1.613281 0 1.253906 -0.15625 1.046875 -0.46875 C 0.835938 -0.78125 0.847656 -1.191406 1.078125 -1.703125 L 25.609375 -53.53125 C 26.148438 -54.625 26.796875 -55.171875 27.546875 -55.171875 C 28.304688 -55.171875 28.953125 -54.625 29.484375 -53.53125 Z M 27.5625 -29.796875 L 22.265625 -16.34375 L 32.828125 -16.34375 Z M 27.5625 -29.796875 "/></g></g></g><g fill="#0e1550" fill-opacity="1"><g transform="translate(24.540335, 194.131012)"><g><path d="M 5.59375 -5.140625 L 3.640625 -5.140625 L 3.640625 0 L 2 0 L 2 -5.140625 L 0.0625 -5.140625 L 0.0625 -6.46875 L 5.59375 -6.46875 Z M 5.59375 -5.140625 "/></g></g></g><g fill="#0e1550" fill-opacity="1"><g transform="translate(34.615679, 194.131012)"><g><path d="M 5.703125 -5.171875 L 2.296875 -5.171875 L 2.296875 -3.890625 L 5.375 -3.890625 L 5.375 -2.59375 L 2.296875 -2.59375 L 2.296875 -1.296875 L 5.8125 -1.296875 L 5.8125 0 L 0.640625 0 L 0.640625 -6.46875 L 5.703125 -6.46875 Z M 5.703125 -5.171875 "/></g></g></g><g fill="#0e1550" fill-opacity="1"><g transform="translate(45.272833, 194.131012)"><g><path d="M 4.546875 0 L 3.578125 -1.8125 L 2.296875 -1.8125 L 2.296875 0 L 0.640625 0 L 0.640625 -6.46875 L 3.53125 -6.46875 C 4.394531 -6.46875 5.054688 -6.269531 5.515625 -5.875 C 5.984375 -5.488281 6.21875 -4.929688 6.21875 -4.203125 C 6.21875 -3.210938 5.828125 -2.523438 5.046875 -2.140625 L 6.40625 0 Z M 2.296875 -3.109375 L 3.53125 -3.109375 C 3.894531 -3.109375 4.171875 -3.195312 4.359375 -3.375 C 4.554688 -3.550781 4.65625 -3.8125 4.65625 -4.15625 C 4.65625 -4.488281 4.554688 -4.738281 4.359375 -4.90625 C 4.171875 -5.082031 3.894531 -5.171875 3.53125 -5.171875 L 2.296875 -5.171875 Z M 2.296875 -3.109375 "/></g></g></g><g fill="#0e1550" fill-opacity="1"><g transform="translate(56.391736, 194.131012)"><g><path d="M 4.546875 0 L 3.578125 -1.8125 L 2.296875 -1.8125 L 2.296875 0 L 0.640625 0 L 0.640625 -6.46875 L 3.53125 -6.46875 C 4.394531 -6.46875 5.054688 -6.269531 5.515625 -5.875 C 5.984375 -5.488281 6.21875 -4.929688 6.21875 -4.203125 C 6.21875 -3.210938 5.828125 -2.523438 5.046875 -2.140625 L 6.40625 0 Z M 2.296875 -3.109375 L 3.53125 -3.109375 C 3.894531 -3.109375 4.171875 -3.195312 4.359375 -3.375 C 4.554688 -3.550781 4.65625 -3.8125 4.65625 -4.15625 C 4.65625 -4.488281 4.554688 -4.738281 4.359375 -4.90625 C 4.171875 -5.082031 3.894531 -5.171875 3.53125 -5.171875 L 2.296875 -5.171875 Z M 2.296875 -3.109375 "/></g></g></g><g fill="#0e1550" fill-opacity="1"><g transform="translate(67.510642, 194.131012)"><g><path d="M 4.9375 -1.1875 L 2.109375 -1.1875 L 1.640625 0 L -0.046875 0 L 2.75 -6.46875 L 4.4375 -6.46875 L 7.15625 0 L 5.40625 0 Z M 4.453125 -2.4375 L 3.53125 -4.828125 L 2.59375 -2.4375 Z M 4.453125 -2.4375 "/></g></g></g><g fill="#0e1550" fill-opacity="1"><g transform="translate(79.054357, 194.131012)"><g/></g></g><g fill="#0e1550" fill-opacity="1"><g transform="translate(85.629649, 194.131012)"><g><path d="M 6.609375 0 L 5.15625 0 L 2.1875 -3.984375 L 2.1875 0 L 0.640625 0 L 0.640625 -6.46875 L 2.09375 -6.46875 L 5.078125 -2.46875 L 5.078125 -6.46875 L 6.609375 -6.46875 Z M 6.609375 0 "/></g></g></g><g fill="#0e1550" fill-opacity="1"><g transform="translate(97.321123, 194.131012)"><g><path d="M 3.71875 -6.515625 C 4.71875 -6.515625 5.550781 -6.203125 6.21875 -5.578125 C 6.882812 -4.953125 7.21875 -4.171875 7.21875 -3.234375 C 7.21875 -2.296875 6.878906 -1.507812 6.203125 -0.875 C 5.535156 -0.238281 4.703125 0.078125 3.703125 0.078125 C 2.710938 0.078125 1.882812 -0.234375 1.21875 -0.859375 C 0.550781 -1.492188 0.21875 -2.285156 0.21875 -3.234375 C 0.21875 -4.179688 0.550781 -4.960938 1.21875 -5.578125 C 1.882812 -6.203125 2.71875 -6.515625 3.71875 -6.515625 Z M 3.734375 -5.140625 C 3.222656 -5.140625 2.789062 -4.957031 2.4375 -4.59375 C 2.082031 -4.226562 1.90625 -3.773438 1.90625 -3.234375 C 1.90625 -2.691406 2.082031 -2.234375 2.4375 -1.859375 C 2.800781 -1.484375 3.234375 -1.296875 3.734375 -1.296875 C 4.234375 -1.296875 4.65625 -1.484375 5 -1.859375 C 5.34375 -2.234375 5.515625 -2.691406 5.515625 -3.234375 C 5.515625 -3.773438 5.34375 -4.226562 5 -4.59375 C 4.65625 -4.957031 4.234375 -5.140625 3.734375 -5.140625 Z M 3.734375 -5.140625 "/></g></g></g><g fill="#0e1550" fill-opacity="1"><g transform="translate(109.188059, 194.131012)"><g><path d="M 4.203125 0 L 2.5 0 L -0.015625 -6.46875 L 1.75 -6.46875 L 3.390625 -1.703125 L 5.046875 -6.46875 L 6.734375 -6.46875 Z M 4.203125 0 "/></g></g></g><g fill="#0e1550" fill-opacity="1"><g transform="translate(120.353138, 194.131012)"><g><path d="M 4.9375 -1.1875 L 2.109375 -1.1875 L 1.640625 0 L -0.046875 0 L 2.75 -6.46875 L 4.4375 -6.46875 L 7.15625 0 L 5.40625 0 Z M 4.453125 -2.4375 L 3.53125 -4.828125 L 2.59375 -2.4375 Z M 4.453125 -2.4375 "/></g></g></g><g fill="#0e1550" fill-opacity="1"><g transform="translate(131.896847, 194.131012)"><g/></g></g><g fill="#0e1550" fill-opacity="1"><g transform="translate(138.472133, 194.131012)"><g><path d="M 0.640625 -6.46875 L 3.421875 -6.46875 C 4.441406 -6.46875 5.269531 -6.164062 5.90625 -5.5625 C 6.539062 -4.96875 6.859375 -4.191406 6.859375 -3.234375 C 6.859375 -2.273438 6.535156 -1.492188 5.890625 -0.890625 C 5.242188 -0.296875 4.398438 0 3.359375 0 L 0.640625 0 Z M 2.296875 -5.15625 L 2.296875 -1.3125 L 3.46875 -1.3125 C 3.96875 -1.3125 4.378906 -1.488281 4.703125 -1.84375 C 5.023438 -2.195312 5.1875 -2.65625 5.1875 -3.21875 C 5.1875 -3.789062 5.015625 -4.253906 4.671875 -4.609375 C 4.335938 -4.972656 3.910156 -5.15625 3.390625 -5.15625 Z M 2.296875 -5.15625 "/></g></g></g><g fill="#0e1550" fill-opacity="1"><g transform="translate(149.98814, 194.131012)"><g><path d="M 3.71875 -6.515625 C 4.71875 -6.515625 5.550781 -6.203125 6.21875 -5.578125 C 6.882812 -4.953125 7.21875 -4.171875 7.21875 -3.234375 C 7.21875 -2.296875 6.878906 -1.507812 6.203125 -0.875 C 5.535156 -0.238281 4.703125 0.078125 3.703125 0.078125 C 2.710938 0.078125 1.882812 -0.234375 1.21875 -0.859375 C 0.550781 -1.492188 0.21875 -2.285156 0.21875 -3.234375 C 0.21875 -4.179688 0.550781 -4.960938 1.21875 -5.578125 C 1.882812 -6.203125 2.71875 -6.515625 3.71875 -6.515625 Z M 3.734375 -5.140625 C 3.222656 -5.140625 2.789062 -4.957031 2.4375 -4.59375 C 2.082031 -4.226562 1.90625 -3.773438 1.90625 -3.234375 C 1.90625 -2.691406 2.082031 -2.234375 2.4375 -1.859375 C 2.800781 -1.484375 3.234375 -1.296875 3.734375 -1.296875 C 4.234375 -1.296875 4.65625 -1.484375 5 -1.859375 C 5.34375 -2.234375 5.515625 -2.691406 5.515625 -3.234375 C 5.515625 -3.773438 5.34375 -4.226562 5 -4.59375 C 4.65625 -4.957031 4.234375 -5.140625 3.734375 -5.140625 Z M 3.734375 -5.140625 "/></g></g></g><g fill="#0e1550" fill-opacity="1"><g transform="translate(161.85507, 194.131012)"><g/></g></g><g fill="#0e1550" fill-opacity="1"><g transform="translate(168.430357, 194.131012)"><g><path d="M 6.609375 0 L 5.15625 0 L 2.1875 -3.984375 L 2.1875 0 L 0.640625 0 L 0.640625 -6.46875 L 2.09375 -6.46875 L 5.078125 -2.46875 L 5.078125 -6.46875 L 6.609375 -6.46875 Z M 6.609375 0 "/></g></g></g><g fill="#0e1550" fill-opacity="1"><g transform="translate(180.121825, 194.131012)"><g><path d="M 3.71875 -6.515625 C 4.71875 -6.515625 5.550781 -6.203125 6.21875 -5.578125 C 6.882812 -4.953125 7.21875 -4.171875 7.21875 -3.234375 C 7.21875 -2.296875 6.878906 -1.507812 6.203125 -0.875 C 5.535156 -0.238281 4.703125 0.078125 3.703125 0.078125 C 2.710938 0.078125 1.882812 -0.234375 1.21875 -0.859375 C 0.550781 -1.492188 0.21875 -2.285156 0.21875 -3.234375 C 0.21875 -4.179688 0.550781 -4.960938 1.21875 -5.578125 C 1.882812 -6.203125 2.71875 -6.515625 3.71875 -6.515625 Z M 3.734375 -5.140625 C 3.222656 -5.140625 2.789062 -4.957031 2.4375 -4.59375 C 2.082031 -4.226562 1.90625 -3.773438 1.90625 -3.234375 C 1.90625 -2.691406 2.082031 -2.234375 2.4375 -1.859375 C 2.800781 -1.484375 3.234375 -1.296875 3.734375 -1.296875 C 4.234375 -1.296875 4.65625 -1.484375 5 -1.859375 C 5.34375 -2.234375 5.515625 -2.691406 5.515625 -3.234375 C 5.515625 -3.773438 5.34375 -4.226562 5 -4.59375 C 4.65625 -4.957031 4.234375 -5.140625 3.734375 -5.140625 Z M 3.734375 -5.140625 "/></g></g></g><g fill="#0e1550" fill-opacity="1"><g transform="translate(191.988755, 194.131012)"><g><path d="M 4.546875 0 L 3.578125 -1.8125 L 2.296875 -1.8125 L 2.296875 0 L 0.640625 0 L 0.640625 -6.46875 L 3.53125 -6.46875 C 4.394531 -6.46875 5.054688 -6.269531 5.515625 -5.875 C 5.984375 -5.488281 6.21875 -4.929688 6.21875 -4.203125 C 6.21875 -3.210938 5.828125 -2.523438 5.046875 -2.140625 L 6.40625 0 Z M 2.296875 -3.109375 L 3.53125 -3.109375 C 3.894531 -3.109375 4.171875 -3.195312 4.359375 -3.375 C 4.554688 -3.550781 4.65625 -3.8125 4.65625 -4.15625 C 4.65625 -4.488281 4.554688 -4.738281 4.359375 -4.90625 C 4.171875 -5.082031 3.894531 -5.171875 3.53125 -5.171875 L 2.296875 -5.171875 Z M 2.296875 -3.109375 "/></g></g></g><g fill="#0e1550" fill-opacity="1"><g transform="translate(203.107655, 194.131012)"><g><path d="M 5.59375 -5.140625 L 3.640625 -5.140625 L 3.640625 0 L 2 0 L 2 -5.140625 L 0.0625 -5.140625 L 0.0625 -6.46875 L 5.59375 -6.46875 Z M 5.59375 -5.140625 "/></g></g></g><g fill="#0e1550" fill-opacity="1"><g transform="translate(213.182995, 194.131012)"><g><path d="M 5.703125 -5.171875 L 2.296875 -5.171875 L 2.296875 -3.890625 L 5.375 -3.890625 L 5.375 -2.59375 L 2.296875 -2.59375 L 2.296875 -1.296875 L 5.8125 -1.296875 L 5.8125 0 L 0.640625 0 L 0.640625 -6.46875 L 5.703125 -6.46875 Z M 5.703125 -5.171875 "/></g></g></g><path fill="#0e1550" d="M 90.976562 60.148438 L 90.976562 89.273438 L 92.210938 89.273438 L 92.210938 76.796875 L 95.457031 73.335938 L 98.992188 74.34375 L 98.992188 88.238281 L 100.066406 88.542969 L 100.066406 71.386719 L 102.253906 70.042969 L 102.253906 62.742188 L 106.183594 58.558594 L 109.804688 62.417969 L 109.804688 90.777344 L 111.074219 91.140625 L 111.074219 76.730469 L 112.207031 77.429688 L 112.207031 68.289062 L 114.09375 68.828125 L 114.09375 63.101562 L 116.390625 63.757812 L 119.855469 60.066406 L 119.855469 85.542969 L 120.65625 85.542969 L 120.65625 72.113281 L 124.960938 67.53125 L 124.960938 91.503906 L 125.648438 99.492188 L 125.648438 63.554688 L 133.914062 72.355469 L 133.914062 81.605469 L 135.296875 81.605469 L 135.296875 67.734375 L 138.335938 65.867188 L 138.335938 60.105469 L 140.699219 57.589844 L 147.328125 64.648438 L 147.328125 88.582031 L 148.882812 88.582031 L 148.882812 80.910156 L 151.71875 77.890625 L 156.78125 79.335938 L 156.78125 65.25 L 158.992188 63.890625 L 165.769531 68.058594 L 165.769531 87.285156 L 167.175781 87.285156 L 167.175781 67.011719 L 169.699219 65.460938 L 169.699219 57.464844 L 170.960938 58.808594 L 170.960938 68.039062 L 172.703125 69.113281 L 172.703125 86.800781 L 174.152344 86.800781 L 174.152344 70.085938 L 177.960938 66.757812 L 177.960938 91.261719 L 178.949219 91.261719 L 178.949219 77.46875 L 185.125 81.121094 L 185.125 101.761719 L 58.832031 101.761719 L 58.832031 78.566406 L 62.765625 76.148438 L 67.777344 81.484375 L 67.777344 61.246094 L 70.488281 58.359375 L 74.847656 61.039062 L 74.847656 87.050781 L 75.808594 87.328125 L 75.808594 82.296875 L 77.179688 82.296875 L 77.179688 73.042969 L 79.3125 70.773438 L 79.3125 62.414062 L 84.929688 56.429688 Z M 90.976562 60.148438 " fill-opacity="1" fill-rule="evenodd"/><path fill="#09d1e3" d="M 139.980469 60.746094 C 130.078125 70.648438 113.875 70.648438 103.972656 60.746094 C 94.070312 50.84375 94.070312 34.636719 103.972656 24.734375 C 113.875 14.832031 130.078125 14.832031 139.980469 24.734375 C 149.882812 34.636719 149.882812 50.84375 139.980469 60.746094 M 149.53125 70.292969 L 121.976562 97.847656 L 94.421875 70.292969 C 79.269531 55.140625 79.269531 30.339844 94.421875 15.1875 C 109.578125 0.0351562 134.375 0.0351562 149.53125 15.1875 C 164.683594 30.339844 164.683594 55.136719 149.53125 70.292969 Z M 149.53125 70.292969 " fill-opacity="1" fill-rule="evenodd"/><g clip-path="url(#ae11209c57)"><path fill="#09d1e3" d="M 58.828125 101.761719 L 185.125 101.761719 C 196.042969 101.761719 204.96875 102.726562 204.96875 103.90625 C 204.96875 105.085938 196.042969 106.050781 185.125 106.050781 L 58.828125 106.050781 C 47.910156 106.050781 38.984375 105.085938 38.984375 103.90625 C 38.984375 102.726562 47.910156 101.761719 58.828125 101.761719 " fill-opacity="1" fill-rule="evenodd"/></g><path fill="#09d1e3" d="M 94.007812 108.78125 L 149.945312 108.78125 C 160.867188 108.78125 169.792969 109.746094 169.792969 110.925781 C 169.792969 112.105469 160.867188 113.070312 149.945312 113.070312 L 94.007812 113.070312 C 83.089844 113.070312 74.160156 112.105469 74.160156 110.925781 C 74.160156 109.746094 83.089844 108.78125 94.007812 108.78125 " fill-opacity="1" fill-rule="evenodd"/><g clip-path="url(#3e800f01f4)"><path fill="#09d1e3" d="M 117.464844 115.796875 L 126.488281 115.796875 C 137.410156 115.796875 146.335938 116.761719 146.335938 117.941406 C 146.335938 119.121094 137.410156 120.085938 126.488281 120.085938 L 117.464844 120.085938 C 106.542969 120.085938 97.617188 119.121094 97.617188 117.941406 C 97.617188 116.761719 106.542969 115.796875 117.464844 115.796875 " fill-opacity="1" fill-rule="evenodd"/></g><g fill="#0e1550" fill-opacity="1"><g transform="translate(17.422788, 174.397545)"><g><path d="M 32.125 1.421875 C 27.78125 1.421875 23.828125 0.765625 20.265625 -0.546875 C 16.703125 -1.859375 13.644531 -3.742188 11.09375 -6.203125 C 8.550781 -8.660156 6.585938 -11.625 5.203125 -15.09375 C 3.828125 -18.570312 3.140625 -22.460938 3.140625 -26.765625 C 3.140625 -31.066406 3.828125 -34.953125 5.203125 -38.421875 C 6.585938 -41.898438 8.550781 -44.867188 11.09375 -47.328125 C 13.644531 -49.785156 16.703125 -51.671875 20.265625 -52.984375 C 23.828125 -54.296875 27.78125 -54.953125 32.125 -54.953125 C 37.195312 -54.953125 41.734375 -54.054688 45.734375 -52.265625 C 49.742188 -50.484375 53.03125 -48 55.59375 -44.8125 C 56.195312 -44.113281 56.078125 -43.476562 55.234375 -42.90625 L 45.828125 -36.625 C 45.109375 -36.113281 44.46875 -36.234375 43.90625 -36.984375 C 42.582031 -38.578125 40.921875 -39.828125 38.921875 -40.734375 C 36.929688 -41.640625 34.664062 -42.09375 32.125 -42.09375 C 29.175781 -42.09375 26.597656 -41.472656 24.390625 -40.234375 C 22.179688 -38.992188 20.46875 -37.226562 19.25 -34.9375 C 18.03125 -32.644531 17.421875 -29.921875 17.421875 -26.765625 C 17.421875 -23.460938 18.03125 -20.609375 19.25 -18.203125 C 20.46875 -15.804688 22.179688 -13.957031 24.390625 -12.65625 C 26.597656 -11.351562 29.175781 -10.703125 32.125 -10.703125 C 34.519531 -10.703125 36.675781 -11.125 38.59375 -11.96875 C 40.507812 -12.820312 42.109375 -13.988281 43.390625 -15.46875 L 43.390625 -18.40625 L 33.984375 -18.40625 C 33.023438 -18.40625 32.546875 -18.878906 32.546875 -19.828125 L 32.546875 -28.40625 C 32.546875 -29.351562 33.023438 -29.828125 33.984375 -29.828125 L 54.953125 -29.828125 C 55.910156 -29.828125 56.390625 -29.351562 56.390625 -28.40625 L 56.390625 -10.765625 C 56.390625 -10.117188 56.226562 -9.597656 55.90625 -9.203125 C 53.4375 -5.828125 50.15625 -3.210938 46.0625 -1.359375 C 41.976562 0.492188 37.332031 1.421875 32.125 1.421875 Z M 32.125 1.421875 "/></g></g></g><g fill="#0e1550" fill-opacity="1"><g transform="translate(81.392235, 174.397545)"><g><path d="M 28.96875 1.421875 C 26.40625 1.421875 23.929688 1.1875 21.546875 0.71875 C 19.171875 0.257812 16.96875 -0.457031 14.9375 -1.4375 C 12.90625 -2.425781 11.125 -3.6875 9.59375 -5.21875 C 8.070312 -6.757812 6.890625 -8.59375 6.046875 -10.71875 C 5.203125 -12.84375 4.78125 -15.285156 4.78125 -18.046875 L 4.78125 -52.109375 C 4.78125 -53.054688 5.253906 -53.53125 6.203125 -53.53125 L 17.984375 -53.53125 C 18.929688 -53.53125 19.40625 -53.054688 19.40625 -52.109375 L 19.40625 -21.859375 C 19.40625 -18.179688 20.222656 -15.523438 21.859375 -13.890625 C 23.503906 -12.253906 25.875 -11.4375 28.96875 -11.4375 C 32.125 -11.4375 34.507812 -12.253906 36.125 -13.890625 C 37.738281 -15.523438 38.546875 -18.179688 38.546875 -21.859375 L 38.546875 -52.109375 C 38.546875 -53.054688 39.019531 -53.53125 39.96875 -53.53125 L 51.75 -53.53125 C 52.707031 -53.53125 53.1875 -53.054688 53.1875 -52.109375 L 53.1875 -18.046875 C 53.1875 -14.585938 52.546875 -11.625 51.265625 -9.15625 C 49.984375 -6.695312 48.226562 -4.679688 46 -3.109375 C 43.769531 -1.546875 41.191406 -0.398438 38.265625 0.328125 C 35.335938 1.054688 32.238281 1.421875 28.96875 1.421875 Z M 28.96875 1.421875 "/></g></g></g><g fill="#0e1550" fill-opacity="1"><g transform="translate(142.921963, 174.397545)"><g><path d="M 18.125 0 L 6.71875 0 C 5.769531 0 5.296875 -0.472656 5.296875 -1.421875 L 5.296875 -52.109375 C 5.296875 -53.054688 5.769531 -53.53125 6.71875 -53.53125 L 18.125 -53.53125 C 19.070312 -53.53125 19.546875 -53.054688 19.546875 -52.109375 L 19.546875 -1.421875 C 19.546875 -0.472656 19.070312 0 18.125 0 Z M 18.125 0 "/></g></g></g><g fill="#0e1550" fill-opacity="1"><g transform="translate(171.341212, 174.397545)"><g><path d="M 29.484375 -53.53125 L 54.015625 -1.703125 C 54.253906 -1.191406 54.273438 -0.78125 54.078125 -0.46875 C 53.878906 -0.15625 53.507812 0 52.96875 0 L 40.390625 0 C 39.597656 0 39.050781 -0.382812 38.75 -1.15625 L 37.015625 -5.640625 L 18.09375 -5.640625 L 16.34375 -1.15625 C 16.039062 -0.382812 15.492188 0 14.703125 0 L 2.125 0 C 1.613281 0 1.253906 -0.15625 1.046875 -0.46875 C 0.835938 -0.78125 0.847656 -1.191406 1.078125 -1.703125 L 25.609375 -53.53125 C 26.148438 -54.625 26.796875 -55.171875 27.546875 -55.171875 C 28.304688 -55.171875 28.953125 -54.625 29.484375 -53.53125 Z M 27.5625 -29.796875 L 22.265625 -16.34375 L 32.828125 -16.34375 Z M 27.5625 -29.796875 "/></g></g></g><g fill="#0e1550" fill-opacity="1"><g transform="translate(24.540335, 194.131012)"><g><path d="M 5.59375 -5.140625 L 3.640625 -5.140625 L 3.640625 0 L 2 0 L 2 -5.140625 L 0.0625 -5.140625 L 0.0625 -6.46875 L 5.59375 -6.46875 Z M 5.59375 -5.140625 "/></g></g></g><g fill="#0e1550" fill-opacity="1"><g transform="translate(34.615679, 194.131012)"><g><path d="M 5.703125 -5.171875 L 2.296875 -5.171875 L 2.296875 -3.890625 L 5.375 -3.890625 L 5.375 -2.59375 L 2.296875 -2.59375 L 2.296875 -1.296875 L 5.8125 -1.296875 L 5.8125 0 L 0.640625 0 L 0.640625 -6.46875 L 5.703125 -6.46875 Z M 5.703125 -5.171875 "/></g></g></g><g fill="#0e1550" fill-opacity="1"><g transform="translate(45.272833, 194.131012)"><g><path d="M 4.546875 0 L 3.578125 -1.8125 L 2.296875 -1.8125 L 2.296875 0 L 0.640625 0 L 0.640625 -6.46875 L 3.53125 -6.46875 C 4.394531 -6.46875 5.054688 -6.269531 5.515625 -5.875 C 5.984375 -5.488281 6.21875 -4.929688 6.21875 -4.203125 C 6.21875 -3.210938 5.828125 -2.523438 5.046875 -2.140625 L 6.40625 0 Z M 2.296875 -3.109375 L 3.53125 -3.109375 C 3.894531 -3.109375 4.171875 -3.195312 4.359375 -3.375 C 4.554688 -3.550781 4.65625 -3.8125 4.65625 -4.15625 C 4.65625 -4.488281 4.554688 -4.738281 4.359375 -4.90625 C 4.171875 -5.082031 3.894531 -5.171875 3.53125 -5.171875 L 2.296875 -5.171875 Z M 2.296875 -3.109375 "/></g></g></g><g fill="#0e1550" fill-opacity="1"><g transform="translate(56.391736, 194.131012)"><g><path d="M 4.546875 0 L 3.578125 -1.8125 L 2.296875 -1.8125 L 2.296875 0 L 0.640625 0 L 0.640625 -6.46875 L 3.53125 -6.46875 C 4.394531 -6.46875 5.054688 -6.269531 5.515625 -5.875 C 5.984375 -5.488281 6.21875 -4.929688 6.21875 -4.203125 C 6.21875 -3.210938 5.828125 -2.523438 5.046875 -2.140625 L 6.40625 0 Z M 2.296875 -3.109375 L 3.53125 -3.109375 C 3.894531 -3.109375 4.171875 -3.195312 4.359375 -3.375 C 4.554688 -3.550781 4.65625 -3.8125 4.65625 -4.15625 C 4.65625 -4.488281 4.554688 -4.738281 4.359375 -4.90625 C 4.171875 -5.082031 3.894531 -5.171875 3.53125 -5.171875 L 2.296875 -5.171875 Z M 2.296875 -3.109375 "/></g></g></g><g fill="#0e1550" fill-opacity="1"><g transform="translate(67.510642, 194.131012)"><g><path d="M 4.9375 -1.1875 L 2.109375 -1.1875 L 1.640625 0 L -0.046875 0 L 2.75 -6.46875 L 4.4375 -6.46875 L 7.15625 0 L 5.40625 0 Z M 4.453125 -2.4375 L 3.53125 -4.828125 L 2.59375 -2.4375 Z M 4.453125 -2.4375 "/></g></g></g><g fill="#0e1550" fill-opacity="1"><g transform="translate(79.054357, 194.131012)"><g/></g></g><g fill="#0e1550" fill-opacity="1"><g transform="translate(85.629649, 194.131012)"><g><path d="M 6.609375 0 L 5.15625 0 L 2.1875 -3.984375 L 2.1875 0 L 0.640625 0 L 0.640625 -6.46875 L 2.09375 -6.46875 L 5.078125 -2.46875 L 5.078125 -6.46875 L 6.609375 -6.46875 Z M 6.609375 0 "/></g></g></g><g fill="#0e1550" fill-opacity="1"><g transform="translate(97.321123, 194.131012)"><g><path d="M 3.71875 -6.515625 C 4.71875 -6.515625 5.550781 -6.203125 6.21875 -5.578125 C 6.882812 -4.953125 7.21875 -4.171875 7.21875 -3.234375 C 7.21875 -2.296875 6.878906 -1.507812 6.203125 -0.875 C 5.535156 -0.238281 4.703125 0.078125 3.703125 0.078125 C 2.710938 0.078125 1.882812 -0.234375 1.21875 -0.859375 C 0.550781 -1.492188 0.21875 -2.285156 0.21875 -3.234375 C 0.21875 -4.179688 0.550781 -4.960938 1.21875 -5.578125 C 1.882812 -6.203125 2.71875 -6.515625 3.71875 -6.515625 Z M 3.734375 -5.140625 C 3.222656 -5.140625 2.789062 -4.957031 2.4375 -4.59375 C 2.082031 -4.226562 1.90625 -3.773438 1.90625 -3.234375 C 1.90625 -2.691406 2.082031 -2.234375 2.4375 -1.859375 C 2.800781 -1.484375 3.234375 -1.296875 3.734375 -1.296875 C 4.234375 -1.296875 4.65625 -1.484375 5 -1.859375 C 5.34375 -2.234375 5.515625 -2.691406 5.515625 -3.234375 C 5.515625 -3.773438 5.34375 -4.226562 5 -4.59375 C 4.65625 -4.957031 4.234375 -5.140625 3.734375 -5.140625 Z M 3.734375 -5.140625 "/></g></g></g><g fill="#0e1550" fill-opacity="1"><g transform="translate(109.188059, 194.131012)"><g><path d="M 4.203125 0 L 2.5 0 L -0.015625 -6.46875 L 1.75 -6.46875 L 3.390625 -1.703125 L 5.046875 -6.46875 L 6.734375 -6.46875 Z M 4.203125 0 "/></g></g></g><g fill="#0e1550" fill-opacity="1"><g transform="translate(120.353138, 194.131012)"><g><path d="M 4.9375 -1.1875 L 2.109375 -1.1875 L 1.640625 0 L -0.046875 0 L 2.75 -6.46875 L 4.4375 -6.46875 L 7.15625 0 L 5.40625 0 Z M 4.453125 -2.4375 L 3.53125 -4.828125 L 2.59375 -2.4375 Z M 4.453125 -2.4375 "/></g></g></g><g fill="#0e1550" fill-opacity="1"><g transform="translate(131.896847, 194.131012)"><g/></g></g><g fill="#0e1550" fill-opacity="1"><g transform="translate(138.472133, 194.131012)"><g><path d="M 0.640625 -6.46875 L 3.421875 -6.46875 C 4.441406 -6.46875 5.269531 -6.164062 5.90625 -5.5625 C 6.539062 -4.96875 6.859375 -4.191406 6.859375 -3.234375 C 6.859375 -2.273438 6.535156 -1.492188 5.890625 -0.890625 C 5.242188 -0.296875 4.398438 0 3.359375 0 L 0.640625 0 Z M 2.296875 -5.15625 L 2.296875 -1.3125 L 3.46875 -1.3125 C 3.96875 -1.3125 4.378906 -1.488281 4.703125 -1.84375 C 5.023438 -2.195312 5.1875 -2.65625 5.1875 -3.21875 C 5.1875 -3.789062 5.015625 -4.253906 4.671875 -4.609375 C 4.335938 -4.972656 3.910156 -5.15625 3.390625 -5.15625 Z M 2.296875 -5.15625 "/></g></g></g><g fill="#0e1550" fill-opacity="1"><g transform="translate(149.98814, 194.131012)"><g><path d="M 3.71875 -6.515625 C 4.71875 -6.515625 5.550781 -6.203125 6.21875 -5.578125 C 6.882812 -4.953125 7.21875 -4.171875 7.21875 -3.234375 C 7.21875 -2.296875 6.878906 -1.507812 6.203125 -0.875 C 5.535156 -0.238281 4.703125 0.078125 3.703125 0.078125 C 2.710938 0.078125 1.882812 -0.234375 1.21875 -0.859375 C 0.550781 -1.492188 0.21875 -2.285156 0.21875 -3.234375 C 0.21875 -4.179688 0.550781 -4.960938 1.21875 -5.578125 C 1.882812 -6.203125 2.71875 -6.515625 3.71875 -6.515625 Z M 3.734375 -5.140625 C 3.222656 -5.140625 2.789062 -4.957031 2.4375 -4.59375 C 2.082031 -4.226562 1.90625 -3.773438 1.90625 -3.234375 C 1.90625 -2.691406 2.082031 -2.234375 2.4375 -1.859375 C 2.800781 -1.484375 3.234375 -1.296875 3.734375 -1.296875 C 4.234375 -1.296875 4.65625 -1.484375 5 -1.859375 C 5.34375 -2.234375 5.515625 -2.691406 5.515625 -3.234375 C 5.515625 -3.773438 5.34375 -4.226562 5 -4.59375 C 4.65625 -4.957031 4.234375 -5.140625 3.734375 -5.140625 Z M 3.734375 -5.140625 "/></g></g></g><g fill="#0e1550" fill-opacity="1"><g transform="translate(161.85507, 194.131012)"><g/></g></g><g fill="#0e1550" fill-opacity="1"><g transform="translate(168.430357, 194.131012)"><g><path d="M 6.609375 0 L 5.15625 0 L 2.1875 -3.984375 L 2.1875 0 L 0.640625 0 L 0.640625 -6.46875 L 2.09375 -6.46875 L 5.078125 -2.46875 L 5.078125 -6.46875 L 6.609375 -6.46875 Z M 6.609375 0 "/></g></g></g><g fill="#0e1550" fill-opacity="1"><g transform="translate(180.121825, 194.131012)"><g><path d="M 3.71875 -6.515625 C 4.71875 -6.515625 5.550781 -6.203125 6.21875 -5.578125 C 6.882812 -4.953125 7.21875 -4.171875 7.21875 -3.234375 C 7.21875 -2.296875 6.878906 -1.507812 6.203125 -0.875 C 5.535156 -0.238281 4.703125 0.078125 3.703125 0.078125 C 2.710938 0.078125 1.882812 -0.234375 1.21875 -0.859375 C 0.550781 -1.492188 0.21875 -2.285156 0.21875 -3.234375 C 0.21875 -4.179688 0.550781 -4.960938 1.21875 -5.578125 C 1.882812 -6.203125 2.71875 -6.515625 3.71875 -6.515625 Z M 3.734375 -5.140625 C 3.222656 -5.140625 2.789062 -4.957031 2.4375 -4.59375 C 2.082031 -4.226562 1.90625 -3.773438 1.90625 -3.234375 C 1.90625 -2.691406 2.082031 -2.234375 2.4375 -1.859375 C 2.800781 -1.484375 3.234375 -1.296875 3.734375 -1.296875 C 4.234375 -1.296875 4.65625 -1.484375 5 -1.859375 C 5.34375 -2.234375 5.515625 -2.691406 5.515625 -3.234375 C 5.515625 -3.773438 5.34375 -4.226562 5 -4.59375 C 4.65625 -4.957031 4.234375 -5.140625 3.734375 -5.140625 Z M 3.734375 -5.140625 "/></g></g></g><g fill="#0e1550" fill-opacity="1"><g transform="translate(191.988755, 194.131012)"><g><path d="M 4.546875 0 L 3.578125 -1.8125 L 2.296875 -1.8125 L 2.296875 0 L 0.640625 0 L 0.640625 -6.46875 L 3.53125 -6.46875 C 4.394531 -6.46875 5.054688 -6.269531 5.515625 -5.875 C 5.984375 -5.488281 6.21875 -4.929688 6.21875 -4.203125 C 6.21875 -3.210938 5.828125 -2.523438 5.046875 -2.140625 L 6.40625 0 Z M 2.296875 -3.109375 L 3.53125 -3.109375 C 3.894531 -3.109375 4.171875 -3.195312 4.359375 -3.375 C 4.554688 -3.550781 4.65625 -3.8125 4.65625 -4.15625 C 4.65625 -4.488281 4.554688 -4.738281 4.359375 -4.90625 C 4.171875 -5.082031 3.894531 -5.171875 3.53125 -5.171875 L 2.296875 -5.171875 Z M 2.296875 -3.109375 "/></g></g></g><g fill="#0e1550" fill-opacity="1"><g transform="translate(203.107655, 194.131012)"><g><path d="M 5.59375 -5.140625 L 3.640625 -5.140625 L 3.640625 0 L 2 0 L 2 -5.140625 L 0.0625 -5.140625 L 0.0625 -6.46875 L 5.59375 -6.46875 Z M 5.59375 -5.140625 "/></g></g></g><g fill="#0e1550" fill-opacity="1"><g transform="translate(213.182995, 194.131012)"><g><path d="M 5.703125 -5.171875 L 2.296875 -5.171875 L 2.296875 -3.890625 L 5.375 -3.890625 L 5.375 -2.59375 L 2.296875 -2.59375 L 2.296875 -1.296875 L 5.8125 -1.296875 L 5.8125 0 L 0.640625 0 L 0.640625 -6.46875 L 5.703125 -6.46875 Z M 5.703125 -5.171875 "/></g></g></g></svg>